<svg width="345" height="236" viewBox="0 0 345 236" fill="none" xmlns="http://www.w3.org/2000/svg">
<g clip-path="url(#clip0_366_3963)">
<path d="M344.662 0H0V206.933H344.662V0Z" fill="#F23D4A"/>
<path d="M154.513 111.675C152.789 113.086 154.393 115.519 154.393 124.183C154.393 130.221 153.505 135.094 152.729 138.117C155.282 139.452 159.431 141.191 164.789 141.654C173.588 142.4 180.297 139.228 183.089 137.706C182.671 132.027 181.566 124.258 181.148 118.578C179.133 118.153 177.021 119.571 173.73 118.578C161.692 114.944 156.894 109.742 154.513 111.683V111.675Z" fill="#F3D4B8"/>
<path d="M151.684 88.137C152.722 80.6517 156.953 80.0994 158.961 75.1739C159.55 73.7335 162.08 69.905 163.857 68.2706C164.401 67.7706 165.036 67.3751 165.707 67.084C172.32 64.2406 181.059 64.8302 185.313 67.3079C187.186 68.3975 188.432 70.3304 189.798 73.4425C191.276 76.8008 191.477 79.7113 191.596 82.4502C192.007 91.764 192.216 96.4134 191.455 100.19C189.425 110.332 183.238 117.601 179.096 121.571C177.909 122.713 176.365 123.437 174.723 123.541C174.708 123.541 174.693 123.541 174.678 123.541C172.088 123.705 170.178 122.414 167.678 120.698C158.58 114.459 160.073 114.825 157.073 113.145C155.267 112.13 153.102 111.086 150.976 108.638C150.296 107.854 149.535 106.981 149.102 106.003C147.244 101.802 150.364 97.5329 151.67 88.1221L151.684 88.137Z" fill="#F3D4B8"/>
<path d="M138.244 106.541C132.751 105.802 131.99 106.213 129.236 105.295C127.505 104.72 123.885 103.511 123.557 101.272C123.348 99.8618 124.594 99.0185 124.109 98.0856C123.587 97.0707 121.781 97.399 119.258 97.1154C117.191 96.8841 112.81 96.3841 111.079 93.787C109.75 91.7944 111.28 90.5033 109.832 87.1375C108.81 84.7568 107.817 84.8762 107.064 82.9806C105.593 79.3088 107.81 75.137 108.728 73.4131C110.773 69.5697 112.347 69.8383 115.101 65.2337C116.848 62.3157 117.833 60.6663 117.736 58.4424C117.564 54.6736 114.497 54.084 113.437 49.845C113.37 49.5689 112.153 44.3523 115.377 40.2775C118.534 36.2923 124.781 34.8445 128.266 36.949C131.154 38.6954 131.057 42.2179 134.781 43.4642C135.4 43.6732 136.796 44.1135 138.244 43.606C140.505 42.8075 140.722 40.4716 142.401 38.3371C144.766 35.337 148.513 34.6579 151.968 34.0385C153.647 33.74 158.685 33.031 164.304 35.2848C170.767 37.8744 177.38 44.1359 178.163 49.8376C178.29 50.7704 178.499 53.4273 180.38 55.8005C181.044 56.6363 182.081 56.7931 182.872 58.017C183.626 59.1737 184.119 60.8828 183.566 61.3455C182.813 61.9724 180.372 60.0842 179.133 59.2633C173.2 55.3527 165.394 56.5542 162.222 57.0468C148.087 59.226 140.863 74.6146 139.908 76.7266C136.766 83.6821 133.527 96.7423 139.356 102.787C141.296 104.795 144.535 106.347 144.207 107.086C143.983 107.593 142.334 107.086 138.244 106.534V106.541Z" fill="#5A4A42"/>
<path d="M191.604 82.4581C192.149 82.4207 193.597 76.2638 190.977 70.2263C188.582 64.7037 183.962 62.0021 178.708 58.8975C170.208 53.8674 162.7 53.0465 160.723 52.8674C156.454 52.4868 152.476 52.1286 148.147 54.3227C146.864 54.972 141.998 57.4422 140.349 62.226C139.826 63.7559 139.961 64.5469 139.102 66.6963C137.856 69.8009 136.14 71.7039 135.565 72.4129C131.483 77.4877 133.072 87.6 133.378 89.5628C133.632 91.1823 135.632 102.698 145.856 110.041C148.565 111.989 151.931 113.735 153.73 114.4C153.76 112.802 154.454 112.049 154.439 111.258C154.387 108.981 148.61 105.16 147.625 102.145C147.222 100.914 146.655 97.6004 146.968 96.1153C147.618 93.0032 151.7 92.7047 153.066 91.8166C154.663 90.7793 154.655 88.4956 155.484 84.9805C156.969 78.7042 158.558 73.204 163.215 69.2934C167.462 65.7261 172.313 65.2559 173.716 65.1365C175.029 65.0246 182.171 64.4275 186.813 68.8755C192.119 73.9503 190.948 82.5028 191.597 82.4581H191.604Z" fill="#5A4A42"/>
<path d="M138.244 66.6589C137.498 66.6216 137.02 65.517 136.856 65.1364C135.864 62.8378 137.02 58.0765 140.394 55.2928C144.155 52.1807 148.916 52.9867 149.752 53.1435C148.297 53.7256 147.2 54.3599 146.498 54.8077C142.446 57.3899 140.379 60.8378 140.021 62.4348C139.789 63.4647 139.744 63.823 139.744 63.823C139.595 64.9946 139.744 65.3827 139.416 65.9126C139.2 66.2559 138.744 66.6962 138.259 66.6663L138.244 66.6589Z" fill="#FFF7AE"/>
<path d="M142.065 86.8761C142.349 86.5328 143.102 85.4432 143.767 85.1447C146.013 84.1447 148.103 85.7343 148.394 85.9209C152.17 88.4284 152.207 94.6675 151.722 98.3989C151.461 100.377 149.976 103.929 147.304 104.69C146.588 104.892 144.961 105.093 143.461 104.22C142.931 103.914 142.379 102.944 142.147 102.675C143.617 103.265 144.334 103.004 145.252 102.466C148.267 100.078 148.282 97.0332 148.476 95.2794C148.632 93.8614 148.252 90.6971 146.968 88.7269C144.961 85.6522 142.811 86.4433 142.08 86.8687L142.065 86.8761Z" fill="#2B2B2B"/>
<path d="M143.611 103.011C146.29 103.011 148.462 99.3023 148.462 94.7272C148.462 90.1522 146.29 86.4434 143.611 86.4434C140.932 86.4434 138.76 90.1522 138.76 94.7272C138.76 99.3023 140.932 103.011 143.611 103.011Z" fill="#404041"/>
<path d="M144.395 85.9209C144.626 84.988 145.126 83.264 145.589 81.6595C146.977 76.816 148.216 73.6667 149.738 69.9874C151.089 66.7336 153.821 61.9647 159.724 58.8378C162.037 57.6138 166.56 55.6959 171.679 56.1362C179.933 56.8377 186.784 63.9648 187.434 65.032C189.523 67.0993 190.613 69.2262 190.389 69.0023C187.807 66.4276 185.986 64.4648 184.322 63.3081C181.508 61.3528 178.553 59.793 176.299 59.3005C172.665 58.5094 168.717 58.1661 166.06 59.0467C158.851 61.4274 154.918 66.8679 153.843 69.5994C150.432 78.2788 149.335 83.167 148.126 89.3016C147.761 88.1598 147.298 87.2343 146.462 86.5478C145.955 86.1298 145.634 85.9731 144.38 85.9209H144.395Z" fill="#2B2B2B"/>
<path d="M149.327 89.4581C149.656 88.0849 150.186 85.9804 150.887 83.428C153.148 75.2337 154.32 71.0768 156.395 68.1439C157.566 66.4946 160.634 62.181 166.373 60.5541C173.395 58.5689 182.411 62.8974 183.336 63.4646C186.776 65.5841 190.097 69.0618 191.09 70.5022C191.06 70.2111 190.642 69.2932 190.433 68.8006C190.127 68.0917 188.702 67.0842 188.53 66.8453C187.784 65.8229 185.814 64.4273 185.202 63.8303C184.12 62.7706 180.299 60.7929 179.381 60.2929C178.336 59.7257 175.276 58.5018 171.91 58.2331C167.179 57.8525 163.746 59.6958 161.947 60.7108C157.35 63.3079 155.581 66.405 154.41 68.4872C152.954 71.0918 152.104 73.868 150.909 77.8458C149.663 82.0101 148.551 86.7491 148.118 89.3014C148.588 89.7641 148.842 88.9954 149.312 89.4581H149.327Z" fill="#404041"/>
<path d="M156.118 112.623C158.23 114.041 161.663 116.422 162.7 117.213C165.864 119.638 167.342 120.571 170.909 122.325C172.081 122.9 173.327 123.415 174.857 123.258C175.85 123.161 176.857 122.795 178.29 121.803C180.641 120.161 182.768 117.9 183.999 116.131C186.761 112.183 187.425 110.571 188.373 108.496C190.261 104.362 191.335 101.19 191.701 98.8093C192.313 94.7719 192.209 91.018 191.664 83.9356C191.044 75.8383 189.679 72.6069 188.537 70.9501C186.664 68.2186 184.246 67.2186 183.074 66.6514C178.492 64.4498 173.021 65.1066 170.797 65.5991C169.685 65.8454 167.073 66.7634 164.678 68.1888C159.163 71.4725 157.185 79.1146 156.506 81.2191" stroke="#231F20" stroke-width="0.746296" stroke-miterlimit="10"/>
<path d="M174.835 83.0779C175.111 83.5555 174.805 84.354 174.35 84.8093C173.723 85.4362 172.798 85.4436 172.201 85.4362C167.439 85.3839 166.38 85.1451 165.059 85.5779C164.327 85.8168 163.245 86.3541 162.148 87.7273C162.059 87.4064 161.962 86.9064 162.081 86.3392C162.141 86.0332 162.394 85.0705 163.954 84.0555C164.909 83.4286 165.857 83.1077 172.201 82.6674C173.499 82.5778 174.507 82.5181 174.835 83.0853V83.0779Z" fill="#5A4A42"/>
<path d="M183.209 82.2412C182.94 82.7711 183.44 83.5398 183.993 83.8905C184.47 84.1965 185.5 83.8383 186.358 83.6815C189.276 83.1517 190.799 83.1741 191.351 83.0173C191.366 82.3158 191.269 82.1218 191.247 81.4427C186.776 81.0247 183.612 81.4427 183.216 82.2337L183.209 82.2412Z" fill="#5A4A42"/>
<path d="M191.239 81.4507C186.768 81.0328 184.224 81.4283 183.209 82.2418C182.746 82.6149 183.44 83.5403 183.992 83.8911" fill="#5A4A42"/>
<path d="M170.239 92.2659C170.864 91.3554 170.737 90.1822 169.956 89.6455C169.175 89.1088 168.034 89.4119 167.409 90.3225C166.783 91.233 166.91 92.4062 167.691 92.9429C168.473 93.4796 169.613 93.1765 170.239 92.2659Z" fill="#231F20"/>
<path d="M188.413 91.0722C188.868 90.1892 188.708 89.2009 188.056 88.8649C187.403 88.5289 186.506 88.9723 186.051 89.8553C185.596 90.7383 185.756 91.7265 186.408 92.0626C187.06 92.3986 187.958 91.9552 188.413 91.0722Z" fill="#231F20"/>
<path d="M182.306 83.585C181.85 84.1447 181.246 85.0328 180.85 86.2343C179.865 89.2419 180.47 90.5181 181.559 92.436C183.306 95.4959 183.738 96.078 184.447 98.6004C184.753 99.6975 185.007 100.295 184.074 100.989C181.731 102.13 179.268 101.892 178.798 100.832C178.679 100.556 178.761 100.235 178.902 99.9512" stroke="#231F20" stroke-width="0.746296" stroke-miterlimit="10"/>
<path d="M174.089 105.519C174.201 105.862 174.619 107.056 175.858 107.802C177.015 108.504 178.157 108.377 178.664 108.325C180.074 108.168 181.03 107.459 181.418 107.131C181.283 107.556 180.91 108.526 179.963 109.265C179.851 109.347 177.88 110.832 175.962 109.892C174.5 109.175 173.679 107.369 174.089 105.526V105.519Z" fill="#231F20"/>
<path d="M154.364 125.907C157.223 126.892 161.798 128.057 166.552 128.333C172.716 128.691 178.597 127.475 181.925 126.497C182.41 130.034 182.597 134.154 183.082 137.684C179.642 139.617 176.216 140.938 174.126 141.363C166.925 142.826 161.395 141.296 158.932 140.565C156.215 139.751 153.581 138.677 152.111 137.893C153.081 134.251 153.402 129.542 154.372 125.9L154.364 125.907Z" fill="#6824D3"/>
<path d="M117.52 192.164C119.244 195.432 120.997 198.716 122.789 202.007C123.065 202.515 123.341 203.022 123.617 203.53C126.102 203.097 128.087 202.761 129.296 202.559C142.901 200.291 149.431 199.597 164.783 197.156C166.708 196.85 168.245 196.597 169.081 196.462C168.969 197.641 168.917 198.94 168.94 200.343C168.984 202.709 169.275 204.813 169.634 206.582C158.954 212.784 147.864 221.18 133.976 226.971C125.326 230.575 115.811 231.493 107.952 234.023C106.131 233.337 102.519 231.665 99.6385 227.926C98.1981 226.053 97.3623 224.21 96.8697 222.799C96.1981 221.351 94.8323 217.881 95.3473 213.373C95.8324 209.142 97.728 206.201 98.6758 204.918C104.96 200.664 111.243 196.417 117.527 192.164H117.52Z" fill="#6824D3"/>
<path d="M152.469 136.549C155.215 139.46 157.558 140.132 159.379 140.706C161.663 141.438 169.633 143.408 177.052 140.497C180.194 139.266 181.918 138.02 183.082 136.758C184.246 137.072 186.679 137.751 188.694 138.423C207.15 144.527 218.732 155.423 222.165 158.834C225.486 162.132 229.792 166.961 233.949 173.528C230.763 172.282 227.576 171.036 224.382 169.789C215.374 176.767 206.366 183.745 197.351 190.723C187.5 185.633 183.641 186.014 181.962 187.394C181.701 187.611 181.529 187.82 177.529 191.827C176.216 193.141 175.223 194.134 175.171 194.186C169.872 199.462 157.29 200.701 157.29 200.701C147.162 200.701 132.856 202.723 123.468 206.798C117.826 209.246 110.579 213.522 102.922 225.127C100.079 229.829 103.064 233.65 93.9814 229.56C90.8619 228.157 90.9664 226.441 90.7574 224.538C90.1231 219.634 90.4141 218.06 91.1753 209.567C91.9216 201.216 93.7426 183.364 106.564 166.043C114.922 154.744 124.729 148.05 131.237 144.423C139.117 140.027 147.26 137.773 152.461 136.557L152.469 136.549Z" fill="#322A42"/>
<path d="M126.117 48.2925C124.788 47.7029 123.333 47.7403 122.475 48.5015C120.893 49.9045 121.878 53.2778 123.408 53.9047C124.161 54.2106 125.258 53.9494 125.385 53.4867C125.512 53.039 124.729 52.2703 123.93 52.1359C122.534 51.8971 120.721 53.5017 120.393 55.3599C120.034 57.3973 121.527 59.4646 123.199 59.9347C123.885 60.1288 125.094 60.181 125.482 59.5168C125.863 58.875 125.385 57.7406 124.654 57.3302C123.445 56.6585 121.288 57.8227 120.393 59.4123C119.534 60.9273 119.766 62.9423 120.915 64.6066" stroke="#231F20" stroke-width="0.559722" stroke-miterlimit="10"/>
<path d="M127.117 73.1295C126.453 72.8309 125.729 72.8533 125.296 73.2339C124.505 73.9355 124.998 75.6221 125.766 75.9355C126.147 76.0923 126.692 75.9579 126.751 75.7266C126.811 75.5027 126.423 75.1221 126.02 75.0474C125.326 74.928 124.416 75.734 124.251 76.6594C124.072 77.6819 124.819 78.7118 125.654 78.9431C125.998 79.0401 126.602 79.07 126.796 78.7342C126.99 78.4132 126.744 77.8461 126.378 77.6446C125.774 77.3087 124.699 77.8908 124.244 78.6819C123.818 79.4431 123.93 80.4506 124.505 81.279" stroke="#231F20" stroke-width="0.559722" stroke-miterlimit="10"/>
<path d="M145.036 108.377C143.864 107.436 142.573 106.242 141.297 104.735C138.714 101.69 137.446 98.7718 136.617 96.8314C135.677 94.6373 135.177 92.8984 135.058 92.4656C133.364 86.4131 133.871 81.2935 134.125 78.9502C134.811 72.6216 134.729 69.1438 136.931 68.0319C138.11 67.4423 139.565 67.6587 140.364 66.4721C140.961 65.5765 140.438 64.778 140.573 63.4571C140.759 61.6137 141.991 60.3972 143.901 58.5688C145.021 57.5016 147.245 55.412 150.655 53.994C157.223 51.2775 163.536 52.9865 165.544 53.6209" stroke="#231F20" stroke-width="0.746296" stroke-miterlimit="10"/>
<path d="M145.02 43.8523C144.475 42.6433 144.565 41.4716 145.162 41.0089C145.445 40.785 145.826 40.7402 145.915 40.7253C146.363 40.6656 147.124 40.7477 147.311 41.2179C147.416 41.4791 147.326 41.8597 147.102 41.9791C146.736 42.1657 146.162 41.591 146.132 41.5612C145.512 40.9268 145.214 39.576 145.923 38.5834C146.677 37.5386 148.184 37.4043 149.11 37.9565C149.923 38.4416 150.468 39.5462 150.147 39.9641C149.856 40.3522 148.744 40.2402 148.348 39.688C147.841 38.979 148.475 37.4864 149.528 36.9864C150.647 36.4565 151.863 37.2252 152.02 37.3297C152.438 37.6058 152.699 37.9342 152.849 38.158" stroke="#231F20" stroke-width="0.559722" stroke-miterlimit="10"/>
<path d="M140.64 54.8076C140.879 53.5015 140.506 52.3896 139.819 52.0836C139.491 51.9343 139.11 51.9791 139.021 51.994C138.573 52.0463 137.849 52.3075 137.789 52.8075C137.752 53.0911 137.931 53.4344 138.177 53.4941C138.573 53.5911 138.998 52.8896 139.021 52.8523C139.468 52.091 139.431 50.7029 138.498 49.9119C137.513 49.076 136.021 49.3148 135.252 50.076C134.58 50.7402 134.326 51.9492 134.729 52.2776C135.11 52.5836 136.162 52.2104 136.409 51.5686C136.73 50.7552 135.752 49.4641 134.61 49.2327C133.394 48.9864 132.401 50.0313 132.274 50.1731C131.938 50.5387 131.759 50.9194 131.67 51.1806" stroke="#231F20" stroke-width="0.559722" stroke-miterlimit="10"/>
<path d="M137.371 102.668C136.162 103.213 134.99 103.123 134.527 102.526C134.303 102.243 134.259 101.862 134.244 101.772C134.184 101.325 134.266 100.563 134.736 100.377C134.997 100.272 135.378 100.362 135.497 100.586C135.684 100.952 135.109 101.526 135.08 101.556C134.445 102.175 133.094 102.474 132.102 101.765C131.057 101.011 130.923 99.5037 131.475 98.5783C131.96 97.7648 133.065 97.22 133.482 97.5409C133.871 97.832 133.759 98.944 133.206 99.3395C132.497 99.847 131.005 99.2126 130.505 98.1604C129.975 97.0409 130.744 95.8245 130.848 95.6677C131.124 95.2498 131.453 94.9886 131.676 94.8394" stroke="#231F20" stroke-width="0.559722" stroke-miterlimit="10"/>
<path d="M183.268 61.2557C182.776 59.4123 183.709 57.7257 184.933 57.3749C186.358 56.9644 187.739 58.4794 188.261 59.5914C188.918 60.9945 188.724 62.8677 188.119 63.0542C187.455 63.2632 185.955 61.4945 186.321 60.6959C186.724 59.8078 189.604 59.6586 190.619 60.9721C191.896 62.6363 189.851 66.2036 189.231 66.0991C188.918 66.0469 188.672 64.9722 189.075 64.3005C189.515 63.5692 190.694 63.3304 191.545 63.7035C192.784 64.2483 192.858 65.8976 192.873 66.1737C192.925 67.4201 192.291 69.1067 191.157 69.2634C190.418 69.3679 189.485 68.8231 189.418 68.1962C189.336 67.4648 190.425 66.7484 191.343 66.6141C192.485 66.4424 193.791 67.1215 194.284 68.3007C194.806 69.5619 194.284 71.1217 192.985 71.9128" stroke="#231F20" stroke-width="0.559722" stroke-miterlimit="10"/>
<path d="M110.691 71.2634C110.4 71.1664 109.161 70.7783 107.915 71.4052C106.907 71.9127 105.75 73.1441 106.064 74.465C106.444 76.0845 108.81 76.8233 109.355 76.3159C109.631 76.0546 109.646 75.4278 109.355 75.1143C109.049 74.7934 108.444 74.8382 108.056 75.0248C107.079 75.4875 106.825 77.1368 107.034 78.3159C107.056 78.4353 107.519 80.7862 109.168 81.0922C110.191 81.2862 111.43 80.6444 111.437 80.0697C111.444 79.4503 110.004 78.6518 109.026 79.0025C107.795 79.4428 107.273 81.7041 108.004 83.0325C108.631 84.1669 109.735 83.8012 110.833 85.0699C111.78 86.167 112.467 88.182 111.527 89.5178C110.728 90.6447 109.176 90.7119 108.84 90.7194" stroke="#231F20" stroke-width="0.559722" stroke-miterlimit="10"/>
<path d="M158.655 71.7861C158.088 70.5621 156.685 70.1293 155.745 70.6442C155.021 71.0398 154.618 71.9801 154.812 72.9279" stroke="#231F20" stroke-width="0.559722" stroke-miterlimit="10"/>
<path d="M163.774 67.9276C163.804 66.4724 162.416 65.0022 161.036 64.6887C159.976 64.4499 158.976 64.9051 158.662 65.8455" stroke="#231F20" stroke-width="0.559722" stroke-miterlimit="10"/>
<path d="M173.276 64.6144C172.985 62.9352 170.791 60.9202 168.865 60.2411C167.388 59.7187 166.156 60.0172 165.955 61.0322" stroke="#231F20" stroke-width="0.559722" stroke-miterlimit="10"/>
<path d="M168.566 64.5617C168.35 63.3154 166.715 61.8154 165.282 61.3079C164.185 60.9198 163.267 61.1437 163.118 61.8975" stroke="#231F20" stroke-width="0.559722" stroke-miterlimit="10"/>
<path d="M177.365 64.1963C178.529 64.174 179.47 63.756 179.753 63.159C179.903 62.8455 179.91 62.5022 179.91 62.5022C179.91 62.3082 179.925 61.853 179.619 61.5843C179.328 61.3306 178.843 61.3306 178.402 61.5694" stroke="#231F20" stroke-width="0.559722" stroke-miterlimit="10"/>
<path d="M223.866 168.752L252.89 178.424C253.218 178.536 253.33 178.932 253.106 179.2L218.851 219.978C218.724 220.135 218.508 220.187 218.321 220.127L175.805 205.358C175.439 205.231 175.365 204.746 175.671 204.507L223.419 168.819C223.545 168.722 223.71 168.7 223.866 168.745V168.752Z" fill="white" stroke="#231F20" stroke-width="0.746296" stroke-miterlimit="10"/>
<path d="M220.299 220.15L266.391 164.722L315.385 142.998L286.488 180.387L220.337 220.194C220.337 220.194 220.284 220.18 220.299 220.157V220.15Z" fill="white" stroke="#231F20" stroke-width="0.746296" stroke-miterlimit="10"/>
<path d="M266.383 164.723L264.898 164.618L218.635 220.232H220.255L266.383 164.723Z" fill="white" stroke="#231F20" stroke-width="0.746296" stroke-miterlimit="10"/>
<path d="M265.361 164.394L313.617 142.759C313.729 142.706 314.094 142.684 314.214 142.684L315.37 142.781L266.764 164.558C266.615 164.625 266.294 164.595 266.137 164.573L265.361 164.401V164.394Z" fill="white" stroke="#231F20" stroke-width="0.746296" stroke-miterlimit="10"/>
<path d="M161.111 88.8314L161.999 86.4433L174.858 86.2119L176.164 88.921C176.164 88.921 176.03 93.339 175.171 96.0033C174.858 96.981 174.126 97.3168 173.014 97.675H164.872C164.872 97.675 163.857 97.2347 162.499 95.5929C161.141 93.951 161.111 88.8389 161.111 88.8389V88.8314Z" stroke="#F9EC31" stroke-width="0.746296" stroke-miterlimit="10"/>
<path d="M182.351 88.1971L183.134 85.809L194.53 85.5776L195.687 88.2867C195.687 88.2867 195.568 92.7048 194.806 95.369C194.53 96.3467 193.881 96.6825 192.888 97.0407H185.672C185.672 97.0407 184.776 96.6004 183.567 94.9586C182.358 93.3167 182.336 88.2046 182.336 88.2046L182.351 88.1971Z" stroke="#F9EC31" stroke-width="0.746296" stroke-miterlimit="10"/>
<path d="M176.402 88.7049C176.604 88.4736 176.798 88.2348 176.999 88.0034C178.567 87.9885 180.134 87.9661 181.701 87.9512C181.873 88.2198 182.044 88.4885 182.224 88.7572" stroke="#F9EC31" stroke-width="0.746296" stroke-miterlimit="10"/>
<path d="M161.229 88.3838C160.364 88.5778 159.498 88.7644 158.632 88.9584C158.699 89.2346 158.774 89.5107 158.841 89.7868L161.371 89.1823C161.326 88.9137 161.282 88.6525 161.229 88.3838Z" fill="#F9EC31"/>
<path d="M195.694 88.1079H196.246V88.6378H195.806L195.694 88.1079Z" fill="#F9EC31"/>
<path d="M195.478 88.1597L192.232 88.4955V88.9507L195.515 88.6298L195.478 88.1597Z" fill="#F9EC31"/>
<path d="M158.76 89.0928L151.379 90.4361L151.439 90.8839L158.917 89.548L158.76 89.0928Z" fill="#F9EC31"/>
<path d="M185.851 203.671L204.568 190.148L225.464 174.663L250.241 181.909L222.337 215.604L185.851 203.671Z" fill="#E6E7E8"/>
<path d="M170.193 196.634C171.156 195.343 172.007 195.657 174.455 193.828C178.089 191.112 177.634 189.358 180.589 187.276C181.261 186.805 181.723 186.589 188.388 184.679C193.306 183.268 195.769 182.567 196.291 182.492C200.232 181.977 203.478 184.111 207.762 186.134C208.71 186.582 209.456 187.156 210.045 187.246C210.239 187.619 210.277 188.574 210.113 189.052C209.695 190.231 207.702 190.224 205.165 189.776C203.777 189.529 203.179 189.365 200.761 188.111C200.187 187.813 199.09 187.47 198.567 187.403C197.067 187.201 196.515 187.634 194.59 188.149C192.5 188.709 189.537 189.037 188.769 189.746C187.246 191.343 186.276 192.171 184.194 194.455C183.5 195.224 182.738 196.604 181.283 198.478C178.843 201.619 178.82 205.575 175.805 206.933C175.059 207.269 173.484 207.754 170.917 206.933C168.432 201.045 169.044 198.172 170.186 196.642L170.193 196.634Z" fill="#F3D4B8"/>
<path d="M186.045 193.798C188.844 192.753 190.366 191.656 191.396 191.149C194.172 189.79 195.135 191.873 200.389 191.149C202.941 190.798 205.486 190.059 205.486 190.059C205.904 189.94 206.255 189.828 206.501 189.746C206.031 189.768 205.27 189.768 204.367 189.567C202.381 189.119 201.852 188.171 200.157 187.723C199.113 187.447 198.239 187.566 196.493 187.798C195.56 187.925 195.247 188.044 191.635 188.97C189.441 189.529 189.523 189.492 189.403 189.544C186.478 190.701 184.567 193.567 184.933 194.014C185.045 194.149 185.366 194.059 186.052 193.806L186.045 193.798Z" fill="#F3D4B8"/>
<path d="M184.589 193.693C184.888 193.402 188.276 189.835 188.918 189.499C189.537 189.178 190.306 188.977 191.082 188.82C193.545 188.32 193.358 188.275 194.53 187.992C196.03 187.618 196.388 187.551 197.299 187.439C197.612 187.402 198.448 187.193 200.194 187.596C202.486 188.126 203.366 188.909 205.978 189.641C206.374 189.753 207.157 189.962 208.165 189.85C208.762 189.783 209.24 189.626 209.553 189.507L210.031 189.215C210.202 188.738 210.366 188.044 210.031 187.566C209.747 187.163 209.24 187.066 209.068 187.036C207.575 186.738 207.545 185.999 203.269 184.335C200.612 183.297 199.284 182.782 197.836 182.753C196.784 182.73 196.127 182.887 193.993 183.432C188.806 184.745 186.679 185.335 183.701 186.372C181.53 187.126 180.552 187.551 179.597 188.506C178.462 189.641 178.328 190.574 177.537 191.85C176.753 193.111 175.305 194.753 172.372 196.096" stroke="#231F20" stroke-width="0.746296" stroke-miterlimit="10"/>
<path d="M196.269 203.127L198.821 201.283C199.037 201.126 199.306 201.082 199.567 201.149L202.597 201.97C202.903 202.052 202.985 202.44 202.746 202.641L200.373 204.612C200.164 204.783 199.881 204.843 199.627 204.761L196.381 203.753C196.097 203.664 196.037 203.298 196.276 203.127H196.269Z" fill="#E6E7E8" stroke="#231F20" stroke-width="0.746296" stroke-miterlimit="10"/>
<path d="M200.187 199.843L202.739 198C202.956 197.843 203.224 197.798 203.485 197.865L206.515 198.686C206.821 198.768 206.903 199.156 206.665 199.358L204.291 201.328C204.082 201.5 203.799 201.559 203.545 201.477L200.299 200.47C200.015 200.38 199.955 200.015 200.194 199.843H200.187Z" fill="#E6E7E8" stroke="#231F20" stroke-width="0.746296" stroke-miterlimit="10"/>
<path d="M240.8 184.088L243.352 182.245C243.568 182.088 243.837 182.044 244.098 182.111L247.128 182.932C247.434 183.014 247.516 183.402 247.277 183.603L244.904 185.574C244.695 185.745 244.412 185.805 244.158 185.723L240.912 184.715C240.628 184.626 240.568 184.26 240.807 184.088H240.8Z" fill="#E6E7E8" stroke="#231F20" stroke-width="0.746296" stroke-miterlimit="10"/>
<path d="M236.831 187.723L239.383 185.88C239.599 185.723 239.868 185.678 240.129 185.746L243.159 186.566C243.465 186.649 243.547 187.037 243.308 187.238L240.935 189.208C240.726 189.38 240.443 189.44 240.189 189.358L236.943 188.35C236.659 188.261 236.599 187.895 236.838 187.723H236.831Z" fill="#E6E7E8" stroke="#231F20" stroke-width="0.746296" stroke-miterlimit="10"/>
<path d="M220.225 190.305L222.777 188.462C222.994 188.305 223.262 188.26 223.523 188.328L226.553 189.149C226.859 189.231 226.941 189.619 226.703 189.82L224.329 191.79C224.12 191.962 223.837 192.022 223.583 191.94L220.337 190.932C220.053 190.843 219.993 190.477 220.232 190.305H220.225Z" fill="#BBBDBF"/>
<path d="M233.008 190.977L235.561 189.134C235.777 188.977 236.046 188.932 236.307 188.999L239.337 189.82C239.643 189.902 239.725 190.291 239.486 190.492L237.113 192.462C236.904 192.634 236.621 192.694 236.367 192.612L233.12 191.604C232.837 191.514 232.777 191.149 233.016 190.977H233.008Z" fill="#BBBDBF"/>
<path d="M216.449 193.783L219.001 191.939C219.217 191.783 219.486 191.738 219.747 191.805L222.777 192.626C223.083 192.708 223.165 193.096 222.927 193.298L220.553 195.268C220.344 195.44 220.061 195.499 219.807 195.417L216.561 194.41C216.277 194.32 216.217 193.954 216.456 193.783H216.449Z" fill="#BBBDBF"/>
<path d="M209.068 198.775L211.621 196.932C211.837 196.775 212.106 196.731 212.367 196.798L215.397 197.619C215.703 197.701 215.785 198.089 215.546 198.29L213.173 200.261C212.964 200.432 212.68 200.492 212.427 200.41L209.18 199.402C208.897 199.313 208.837 198.947 209.076 198.775H209.068Z" fill="#BBBDBF"/>
<path d="M153.558 85.8534C153.23 85.3385 152.625 85.0623 152.036 85.1594C151.401 85.2638 150.901 85.7639 150.789 86.4057" stroke="#231F20" stroke-width="0.559722" stroke-miterlimit="10"/>
<path d="M181.156 65.1142C182.335 65.1664 182.179 65.2485 182.791 65.1142C183.179 65.0321 183.365 64.5619 183.402 64.3977C183.462 64.1067 183.626 63.7037 182.992 63.4126" stroke="#231F20" stroke-width="0.559722" stroke-miterlimit="10"/>
<path d="M175.104 86.0552C175.537 86.988 175.97 87.9209 176.402 88.8463C176.35 89.727 176.164 92.5554 175.783 94.9585C175.723 95.3391 175.619 95.9585 175.164 96.5481C174.537 97.3541 173.619 97.6452 173.119 97.7571C170.551 97.7795 167.984 97.8019 165.417 97.8317" stroke="#231F20" stroke-width="0.559722" stroke-miterlimit="10"/>
<path d="M194.612 85.4131C195.045 86.346 195.478 87.2788 195.911 88.2042C195.858 89.0849 195.672 91.9133 195.291 94.3164C195.232 94.697 195.127 95.3164 194.672 95.906C194.045 96.712 193.127 97.0031 192.627 97.115C190.06 97.1374 187.492 97.1598 184.925 97.1896" stroke="#231F20" stroke-width="0.559722" stroke-miterlimit="10"/>
<path d="M266.668 144.229C267.175 144.229 265.929 153.155 270.273 159.596C271.608 161.573 275.661 163.551 277.34 163.596C275.019 163.745 273.258 164.991 270.228 167.551C265.063 171.91 266.556 180.992 266.272 180.992C265.705 180.992 266.534 147.521 266.668 144.229Z" fill="black"/>
<path d="M266.646 144.237C266.646 143.729 266.69 152.491 263.235 158.125C261.698 160.633 259.28 164.006 254.973 164.073C258.242 164.006 259.056 165.469 262.086 168.029C267.25 172.387 265.959 181.007 266.243 181.007C266.81 181.007 266.638 148.543 266.638 144.244L266.646 144.237Z" fill="black"/>
<path d="M95.3245 16.2544C95.5708 16.2544 94.9663 20.5531 97.0634 23.6651C97.7052 24.6204 99.6605 25.5682 100.466 25.598C99.347 25.6727 98.4963 26.2697 97.0335 27.5011C94.5484 29.5982 95.2648 33.9789 95.1305 33.9789C94.8543 33.9789 95.2573 17.844 95.3245 16.2619V16.2544Z" fill="#FFDD15"/>
<path d="M95.3096 16.2618C95.3096 16.0155 95.332 20.2395 93.6677 22.956C92.9289 24.165 91.7647 25.792 89.6825 25.8218C91.2572 25.792 91.6527 26.4935 93.1155 27.7249C95.6006 29.822 94.9812 33.9788 95.123 33.9788C95.3991 33.9788 95.317 18.329 95.317 16.2618H95.3096Z" fill="#FFDD15"/>
<path d="M71.242 21.7244C70.9659 21.7244 71.4584 5.62679 71.4361 4.00732Z" fill="black"/>
<path d="M41.7487 164.468L57.1149 158.916L72.5931 164.998L57.3612 173.297L41.7487 164.468Z" fill="#84397F" stroke="#231F20" stroke-width="0.559722" stroke-miterlimit="10"/>
<path d="M41.6147 160.088L57.2869 137.393L72.2949 160.386L57.2869 169.267L41.6147 160.088Z" fill="#F1B6E8" stroke="#231F20" stroke-width="0.746296" stroke-miterlimit="10"/>
<path d="M57.2868 137.393L57.16 168.969" stroke="#231F20" stroke-width="0.559722" stroke-miterlimit="10"/>
<path d="M41.6147 164.514L57.3615 173.298L72.6307 165.051L56.9511 188.298L41.6147 164.514Z" fill="#EEAFE8" stroke="#231F20" stroke-width="0.746296" stroke-linejoin="round"/>
<path d="M57.3615 173.297L57.16 187.992" stroke="#231F20" stroke-width="0.559722" stroke-miterlimit="10"/>
<path d="M286.145 67.2637L306.758 79.5104L286.145 91.1153L276.212 85.5629L286.608 79.0775L275.51 73.5251L286.145 67.2637Z" fill="#F8B848" stroke="#231F20" stroke-width="0.559722" stroke-miterlimit="10"/>
<path d="M265.592 79.451L275.51 73.5254L286.608 79.0778L276.54 85.3318L265.592 79.451Z" fill="#F3E177" stroke="#231F20" stroke-width="0.559722" stroke-miterlimit="10"/>
<path d="M276.541 85.3315L276.452 97.9589L286.266 102.967V91.1153L276.541 85.3315Z" fill="#3A7FD4" stroke="#231F20" stroke-width="0.559722" stroke-miterlimit="10"/>
<path d="M286.265 91.1153L306.99 79.4507V105.422L301.952 108.429L301.78 101.078L296.743 97.3096L286.265 102.966V91.1153Z" fill="#1D6296" stroke="#231F20" stroke-width="0.559722" stroke-miterlimit="10"/>
<path d="M286.265 102.922L296.743 97.3096L301.78 101.078L301.952 108.429L286.265 116.997V102.922Z" fill="#397DCF" stroke="#231F20" stroke-width="0.559722" stroke-miterlimit="10"/>
<path d="M286.265 102.922V116.997L265.361 105.362L265.593 79.4507L276.541 85.3315L276.451 97.9588L286.265 102.922Z" fill="#88C7F7" stroke="#231F20" stroke-width="0.559722" stroke-miterlimit="10"/>
<path d="M88.1827 76.7415L28.4268 97.1826C25.7998 97.9588 20.7698 93.8765 20.7698 91.1376V63.3381C20.7698 61.4201 22.0982 59.7558 23.9789 59.3305L86.623 45.2628C89.2275 44.6807 95.0934 47.5166 95.0412 50.1809L91.1306 72.8907C91.0933 74.6818 89.8992 76.2341 88.1902 76.7415H88.1827Z" fill="#404041" stroke="#231F20" stroke-width="0.559722" stroke-miterlimit="10"/>
<path d="M92.5403 78.9132L29.6275 97.4736C27.2468 98.1752 24.8587 96.3915 24.8587 93.9063V65.2784C24.8587 63.5395 26.0677 62.032 27.7618 61.6514L91.1895 47.4121C93.5478 46.8822 95.7718 48.7032 95.7195 51.1212L95.2046 75.4355C95.1673 77.055 94.0926 78.4655 92.5403 78.9207V78.9132Z" fill="#FFF100" stroke="#231F20" stroke-width="0.559722" stroke-miterlimit="10"/>
<path d="M247.196 65.3907L224.061 56.8979C224.001 56.8755 223.964 56.8158 223.964 56.7561V45.8004C223.964 45.6959 224.061 45.6213 224.158 45.6512L247.293 52.7484C247.36 52.7708 247.398 52.8305 247.398 52.8977V65.2489C247.398 65.3534 247.293 65.428 247.196 65.3907Z" fill="#DFE233" stroke="#231F20" stroke-width="0.746296" stroke-miterlimit="10"/>
<path d="M235.777 55.8234C235.777 57.1816 235.038 58.01 234.135 57.6742C233.232 57.3383 232.516 55.9876 232.516 54.6517C232.516 53.3158 233.24 52.48 234.135 52.7934C235.031 53.1068 235.777 54.4651 235.777 55.8234Z" fill="#231F20"/>
<path d="M227.046 59.4576C227.046 60.8681 226.292 61.7039 225.374 61.3382C224.456 60.9725 223.725 59.5546 223.725 58.1739C223.725 56.7933 224.456 55.9425 225.374 56.2783C226.292 56.6142 227.046 58.0471 227.046 59.4576Z" fill="#231F20"/>
<path d="M234.77 57.6218L226.001 61.4204L226.814 58.592L224.643 56.2038L233.568 52.7261L235.606 54.6664L234.77 57.6218Z" fill="#231F20"/>
<path d="M224.687 59.3229C220.023 61.5917 214.5 63.9127 208.172 65.9277C202.351 67.7785 182.947 49.0017 178.156 49.845" stroke="#231F20" stroke-width="0.746296" stroke-miterlimit="10"/>
<path d="M133.879 227.076C139.192 230.218 147.237 233.957 157.506 235.203C183.686 238.382 203.239 222.814 207.553 219.195" stroke="#231F20" stroke-width="0.746296" stroke-miterlimit="10"/>
<path d="M272.578 38.6207C276.876 35.6355 295.459 36.4863 303.445 35.7027C324.02 33.6728 338.215 33.8519 344.655 36.2102" stroke="#231F20" stroke-width="0.746296" stroke-miterlimit="10"/>
<path d="M247.368 52.7705L224.262 45.6359C224.165 45.6061 224.165 45.4717 224.262 45.4419L262.435 32.9414C262.435 32.9414 262.473 32.9414 262.488 32.9414L284.488 38.0909C284.586 38.1132 284.593 38.2476 284.503 38.2849L247.435 52.763C247.435 52.763 247.39 52.7705 247.368 52.763V52.7705Z" fill="#F1B6E8" stroke="#231F20" stroke-width="0.559722" stroke-miterlimit="10"/>
<path d="M284.981 50.6139L247.509 65.4205C247.457 65.4428 247.397 65.4055 247.397 65.3458V52.8379C247.397 52.8379 247.42 52.7782 247.449 52.7633L285.063 38.106C285.115 38.0836 285.175 38.1284 285.175 38.1806L285.04 50.5393C285.04 50.5393 285.018 50.599 284.988 50.6139H284.981Z" fill="#231F20"/>
<path d="M36.5468 71.8681L30.9645 73.5398C30.0017 73.8308 29.0316 73.1069 29.0316 72.0994V66.338C29.0316 65.644 29.5017 65.0469 30.1734 64.8827L35.7781 63.517C36.7259 63.2857 37.6364 64.0096 37.6364 64.9797L37.614 70.4277C37.614 71.0845 37.1736 71.6666 36.5468 71.8606V71.8681Z" fill="#404041"/>
<path d="M45.1435 79.1601L39.5612 80.8318C38.5985 81.1228 37.6283 80.3989 37.6283 79.3914V73.63C37.6283 72.9359 38.0985 72.3389 38.7702 72.1747L44.3749 70.809C45.3227 70.5776 46.2331 71.3016 46.2331 72.2717L46.2107 77.7197C46.2107 78.3764 45.7704 78.9586 45.1435 79.1526V79.1601Z" fill="#404041"/>
<path d="M54.9277 86.809L49.3454 88.4807C48.3827 88.7717 47.4125 88.0478 47.4125 87.0403V81.2789C47.4125 80.5849 47.8827 79.9878 48.5543 79.8236L54.159 78.4579C55.1068 78.2266 56.0173 78.9505 56.0173 79.9207L55.9949 85.3686C55.9949 86.0254 55.5546 86.6075 54.9277 86.8015V86.809Z" fill="#404041"/>
<path d="M37.6513 90.3837L32.069 92.0554C31.1062 92.3464 30.1361 91.6225 30.1361 90.615V84.8536C30.1361 84.1596 30.6062 83.5625 31.2779 83.3984L36.8826 82.0326C37.8304 81.8013 38.7409 82.5252 38.7409 83.4954L38.7185 88.9433C38.7185 89.6001 38.2782 90.1822 37.6513 90.3762V90.3837Z" fill="#404041"/>
<path d="M71.8311 63.7558L66.2488 65.4275C65.2861 65.7185 64.3159 64.9946 64.3159 63.9871V58.2257C64.3159 57.5316 64.7861 56.9346 65.4578 56.7704L71.0624 55.4047C72.0102 55.1734 72.9207 55.8973 72.9207 56.8674L72.8983 62.3154C72.8983 62.9721 72.458 63.5543 71.8311 63.7483V63.7558Z" fill="#404041"/>
<path d="M73.3165 80.8612L67.7342 82.5329C66.7715 82.824 65.8013 82.1001 65.8013 81.0926V75.3312C65.8013 74.6371 66.2715 74.0401 66.9431 73.8759L72.5478 72.5102C73.4956 72.2788 74.4061 73.0027 74.4061 73.9729L74.3837 79.4209C74.3837 80.0776 73.9434 80.6597 73.3165 80.8538V80.8612Z" fill="#404041"/>
<path d="M81.9142 70.7338L76.3319 72.4055C75.3692 72.6965 74.399 71.9726 74.399 70.9651V65.2037C74.399 64.5097 74.8691 63.9126 75.5408 63.7485L81.1455 62.3827C82.0933 62.1514 83.0038 62.8753 83.0038 63.8455L82.9814 69.2934C82.9814 69.9502 82.5411 70.5323 81.9142 70.7263V70.7338Z" fill="#404041"/>
<path d="M90.518 59.5697L84.9357 61.2414C83.973 61.5325 83.0028 60.8086 83.0028 59.8011V54.0397C83.0028 53.3456 83.473 52.7486 84.1446 52.5844L89.7493 51.2187C90.6971 50.9873 91.6076 51.7112 91.6076 52.6814L91.5852 58.1294C91.5852 58.7861 91.1449 59.3682 90.518 59.5623V59.5697Z" fill="#404041"/>
<path d="M92.0411 76.2489L86.4588 77.9206C85.4961 78.2117 84.5259 77.4878 84.5259 76.4803V70.7189C84.5259 70.0248 84.996 69.4278 85.6677 69.2636L91.2724 67.8979C92.2202 67.6665 93.1307 68.3904 93.1307 69.3606L93.1083 74.8086C93.1083 75.4653 92.668 76.0474 92.0411 76.2415V76.2489Z" fill="#404041"/>
<path d="M119.251 97.1152C117.565 98.4884 112.094 100.989 109.348 103.66C100.37 112.37 83.6007 128.646 82.2872 150.341C81.3245 166.267 89.0561 179.185 94.2951 186.163" stroke="#231F20" stroke-width="0.746296" stroke-miterlimit="10"/>
<path d="M93.0573 101.839L93.0275 106.063" stroke="#231F20" stroke-width="0.559722" stroke-miterlimit="10"/>
<path d="M93.0566 98.4137L72.6901 110.489L93.0566 122.318L113.58 110.16L93.0566 98.4062V98.4137ZM79.0635 110.347L93.0566 101.832L107.624 110.16L93.0566 118.855L79.0635 110.34V110.347Z" fill="#FFF100" stroke="#231F20" stroke-width="0.559722" stroke-miterlimit="10"/>
<path d="M72.6901 110.489V136.423L93.0566 148.154V122.318L72.6901 110.489ZM90.034 141.878L75.8246 133.915V117.153L90.034 125.183V141.885V141.878Z" fill="#EB6218" stroke="#231F20" stroke-width="0.559722" stroke-miterlimit="10"/>
<path d="M79.474 119.214L79.7352 131.221L76.1978 133.662C76.0411 133.774 75.8246 133.662 75.8246 133.468V117.154L79.474 119.214Z" fill="#EB6218" stroke="#231F20" stroke-width="0.559722" stroke-miterlimit="10"/>
<path d="M79.4217 131.445L89.9669 137.609L90.0415 141.878L76.0783 134.049C75.9664 133.99 75.9589 133.826 76.0634 133.758L79.4292 131.445H79.4217Z" fill="#EB6218" stroke="#231F20" stroke-width="0.559722" stroke-miterlimit="10"/>
<path d="M93.0571 122.317V148.154L113.58 135.997V110.601L93.0571 122.317ZM96.5199 141.878L96.4005 125.422L110.483 117.377L110.602 133.534L96.5199 141.878Z" fill="#EB6218" stroke="#231F20" stroke-width="0.559722" stroke-miterlimit="10"/>
<path d="M106.848 131.445L110.482 133.475C110.535 133.505 110.535 133.579 110.482 133.617L96.7505 141.751C96.6535 141.811 96.5266 141.736 96.5341 141.617L96.5192 137.266L106.848 131.445Z" fill="#CC3521" stroke="#231F20" stroke-width="0.559722" stroke-miterlimit="10"/>
<path d="M106.952 119.399L110.482 117.384V133.422L106.982 131.445L106.952 119.399Z" fill="#EB7B27" stroke="#231F20" stroke-width="0.559722" stroke-miterlimit="10"/>
<path d="M79.4808 119.37L89.9439 125.295L89.9663 137.609L79.742 131.631L79.4808 119.37Z" fill="#3C87DE" stroke="#231F20" stroke-width="0.559722" stroke-miterlimit="10"/>
<path d="M96.3925 125.422L106.953 119.399L106.982 131.445L96.5268 137.4L96.3925 125.422Z" fill="#3C87DE" stroke="#231F20" stroke-width="0.559722" stroke-miterlimit="10"/>
<path d="M82.7502 112.489L93.0267 106.063L103.602 112.489L93.0565 118.862L82.7502 112.489Z" fill="#88C7F7" stroke="#231F20" stroke-width="0.559722" stroke-miterlimit="10"/>
<path d="M247.167 131.289C253.227 131.289 258.145 134.058 258.16 137.468C258.951 136.491 259.414 135.393 259.414 134.237C259.414 130.192 254.018 126.916 247.361 126.916C240.704 126.916 235.308 130.192 235.308 134.237C235.308 135.229 235.637 136.17 236.219 137.035C236.637 133.826 241.376 131.296 247.174 131.296L247.167 131.289Z" fill="#823A7A" stroke="#231F20" stroke-width="0.559722" stroke-miterlimit="10"/>
<path d="M247.435 141.26C253.527 141.26 258.465 139.028 258.465 136.274C258.465 133.521 253.527 131.289 247.435 131.289C241.343 131.289 236.405 133.521 236.405 136.274C236.405 139.028 241.343 141.26 247.435 141.26Z" fill="#ECB2EC" stroke="#231F20" stroke-width="0.559722" stroke-miterlimit="10"/>
<path d="M235.382 135.05C235.666 137.759 235.837 139.409 235.905 140.073C235.927 140.297 236.046 140.498 236.226 140.633C236.987 141.207 239.158 142.775 240.965 143.551C247.913 146.543 255.301 143.312 255.868 143.058C257.376 142.372 258.42 141.327 259.249 140.394C259.435 140.185 259.532 139.909 259.532 139.625C259.532 137.252 259.532 136.476 259.532 134.446C259.532 134.386 259.45 134.379 259.428 134.431C259.316 135.05 259.085 135.662 258.749 136.267C257.726 138.133 255.95 139.476 253.943 140.177C250.144 141.513 246.069 141.73 240.912 140.177C238.405 139.424 236.405 137.312 235.382 135.05Z" fill="#823A7A" stroke="#231F20" stroke-width="0.559722" stroke-miterlimit="10"/>
<path d="M236.688 141.259C237.584 146.394 238.539 149.61 239.077 154.051C240.883 155.536 243.928 158.178 247.704 158.432C252.182 158.737 255.428 156.073 256.913 154.596C257.428 149.812 258.003 146.573 258.727 140.946C256.644 142.409 254.323 143.483 253.003 143.886C251.652 144.304 246.249 145.894 240.614 143.416C239.278 142.834 237.36 141.759 236.688 141.259Z" fill="#83397D" stroke="#231F20" stroke-width="0.559722" stroke-miterlimit="10"/>
<path d="M247.495 130.594V104.287C247.495 104.086 247.219 104.026 247.129 104.213L237.114 126.616C237.069 126.713 237.114 126.833 237.218 126.87L247.233 130.773C247.36 130.818 247.495 130.729 247.495 130.594Z" fill="#68B168" stroke="#231F20" stroke-width="0.559722" stroke-miterlimit="10"/>
<path d="M247.778 130.699L256.808 125.281C256.89 125.236 256.92 125.131 256.883 125.049L247.852 104.228C247.77 104.041 247.494 104.101 247.494 104.302V130.535C247.494 130.676 247.651 130.774 247.778 130.699Z" fill="#68B168" stroke="#231F20" stroke-width="0.559722" stroke-miterlimit="10"/>
<path d="M243.95 130.005V136.139C243.95 136.184 243.972 136.229 244.017 136.259L247.286 138.274C247.375 138.333 247.495 138.266 247.495 138.154V131.221C247.495 131.161 247.458 131.109 247.405 131.094L244.137 129.878C244.047 129.848 243.95 129.908 243.95 130.005Z" fill="#F88131" stroke="#231F20" stroke-width="0.559722" stroke-miterlimit="10"/>
<path d="M247.613 130.93L250.576 129.229C250.651 129.184 250.748 129.236 250.748 129.326V135.863C250.748 135.863 250.733 135.93 250.703 135.953L247.74 138.147C247.666 138.199 247.561 138.147 247.561 138.057V131.02C247.561 130.983 247.584 130.945 247.621 130.923L247.613 130.93Z" fill="#E13B20" stroke="#231F20" stroke-width="0.559722" stroke-miterlimit="10"/>
<path d="M272.093 145.557C271.974 145.609 270.869 146.147 270.869 146.147C269.877 150.505 268.593 153.49 268.317 153.99C266.914 156.55 265.436 159.565 260.063 163.11C261.063 163.879 262.623 165.043 264.078 166.588C265.518 168.11 267.332 170.006 268.817 173.066C269.518 174.513 270.563 176.894 270.974 179.902C271.31 180.275 271.802 180.342 272.13 180.715C272.041 180.126 271.981 179.29 271.757 178.32C271.563 177.484 271.123 175.618 270.302 173.633C269.899 172.663 268.317 168.968 264.742 165.461C263.697 164.431 262.667 163.625 261.958 163.103C262.197 162.946 262.451 162.782 262.906 162.438C267.772 158.714 269.817 153.684 270.653 151.445C271.16 150.08 271.72 148.102 272.101 145.58L272.093 145.557Z" fill="#FFF100"/>
<path d="M272.265 180.991L272.063 180.767C271.906 180.596 271.712 180.491 271.511 180.379C271.302 180.267 271.085 180.155 270.906 179.954L270.891 179.931V179.901C270.481 176.939 269.466 174.595 268.735 173.088C267.279 170.095 265.511 168.222 264.085 166.714L264.011 166.632C262.675 165.222 261.279 164.147 260.264 163.364L259.906 163.087L260.01 163.02C265.13 159.654 266.682 156.796 268.048 154.281L268.235 153.93C268.444 153.542 269.742 150.617 270.772 146.109V146.064L270.817 146.049C270.862 146.027 271.929 145.512 272.048 145.46L272.1 145.438L272.182 145.505V145.564C271.757 148.326 271.153 150.288 270.727 151.453C270.07 153.214 268.078 158.572 262.958 162.483C262.57 162.781 262.324 162.946 262.115 163.087C263.1 163.819 264.003 164.595 264.809 165.379C268.011 168.528 269.675 171.871 270.384 173.58C271.227 175.625 271.675 177.558 271.839 178.282C271.996 178.969 272.078 179.595 272.138 180.096C272.168 180.312 272.19 180.506 272.22 180.685L272.265 180.976V180.991ZM271.056 179.857C271.205 180.021 271.399 180.118 271.593 180.222C271.735 180.297 271.876 180.372 272.011 180.476C271.996 180.364 271.981 180.252 271.966 180.125C271.906 179.625 271.824 179.006 271.667 178.327C271.503 177.603 271.056 175.677 270.22 173.655C269.518 171.953 267.861 168.64 264.682 165.513C263.854 164.699 262.921 163.908 261.906 163.162L261.801 163.087L261.973 162.975C262.19 162.826 262.443 162.662 262.846 162.356C267.929 158.468 269.906 153.147 270.563 151.4C270.981 150.273 271.57 148.37 271.981 145.699C271.697 145.833 271.093 146.124 270.936 146.199C269.899 150.706 268.6 153.639 268.391 154.027L268.205 154.378C266.839 156.893 265.287 159.751 260.212 163.11L260.376 163.237C261.398 164.028 262.802 165.102 264.145 166.528L264.219 166.61C265.652 168.125 267.436 170.013 268.899 173.028C269.63 174.543 270.653 176.894 271.063 179.864L271.056 179.857Z" fill="#231F20"/>
<path d="M275.675 155.901C273.138 151.744 272.399 147.803 272.145 145.564C272.145 145.549 272.123 145.549 272.123 145.564C271.795 147.885 270.944 151.721 268.481 155.781C266.302 159.371 263.735 161.722 261.981 163.087V163.102C263.712 164.364 266.384 166.655 268.601 170.289C271.138 174.446 271.877 178.387 272.131 180.625C272.131 180.64 272.153 180.64 272.153 180.625C272.481 178.304 273.332 174.468 275.795 170.409C277.974 166.819 280.541 164.468 282.295 163.102V163.087C280.564 161.826 277.892 159.535 275.675 155.901Z" fill="white"/>
<path d="M272.13 180.752H272.026L272.003 180.64C271.6 177.006 270.384 173.453 268.488 170.349C266.779 167.55 264.563 165.14 261.899 163.199L261.854 163.162V163.035L261.899 162.99C264.496 160.968 266.675 158.52 268.376 155.714C270.272 152.594 271.488 149.169 272.003 145.542L272.018 145.438H272.13H272.235L272.257 145.549C272.66 149.184 273.877 152.736 275.772 155.841C277.481 158.639 279.698 161.05 282.362 162.99L282.407 163.028V163.155L282.362 163.199C279.765 165.222 277.586 167.67 275.884 170.476C273.989 173.595 272.772 177.021 272.257 180.648L272.242 180.752H272.13ZM262.152 163.087C264.787 165.035 266.988 167.438 268.69 170.222C270.473 173.14 271.66 176.454 272.138 179.857C272.712 176.476 273.906 173.274 275.683 170.341C277.377 167.55 279.533 165.117 282.101 163.095C279.466 161.147 277.265 158.744 275.563 155.96C273.78 153.042 272.593 149.729 272.115 146.326C271.541 149.706 270.347 152.908 268.57 155.841C266.876 158.632 264.72 161.065 262.152 163.087Z" fill="#231F20"/>
<path d="M71.0329 0.961914C70.9135 1.01415 69.809 1.55149 69.809 1.55149C68.8164 5.90986 67.5328 8.89504 67.2566 9.39506C65.8536 11.9549 64.3759 14.9699 59.0026 18.5148C60.0026 19.2835 61.5624 20.4477 63.0177 21.9925C64.458 23.515 66.2715 25.4106 67.7567 28.4704C68.4582 29.9182 69.503 32.2989 69.9134 35.3065C70.2493 35.6796 70.7418 35.7468 71.0702 36.1199C70.9807 35.5304 70.921 34.6945 70.6971 33.7243C70.503 32.8885 70.0627 31.0227 69.2418 29.0376C68.8388 28.0674 67.2566 24.3732 63.6819 20.8656C62.6371 19.8357 61.6072 19.0297 60.8982 18.5073C61.137 18.3506 61.3907 18.1864 61.846 17.8431C66.7118 14.1191 68.7567 9.08908 69.5925 6.85019C70.1 5.48447 70.6597 3.50678 71.0404 0.984303L71.0329 0.961914Z" fill="#FFF100"/>
<path d="M71.2123 36.4037L71.0108 36.1798C70.8541 36.0081 70.6601 35.9036 70.4586 35.7917C70.2496 35.6797 70.0332 35.5678 69.8541 35.3663L69.8392 35.3439V35.3141C69.4287 32.3513 68.4137 30.0079 67.6824 28.5004C66.2271 25.5077 64.4584 23.6345 63.0329 22.127L62.9583 22.0449C61.6224 20.6344 60.2269 19.5597 59.2119 18.7761L58.8537 18.5L58.9581 18.4328C64.0777 15.067 65.63 12.2087 66.9958 9.69371L67.1823 9.34295C67.3913 8.95488 68.6899 6.02939 69.7197 1.52176V1.47699L69.7645 1.46206C69.8093 1.43967 70.8765 0.924727 70.9959 0.872487L71.0481 0.850098L71.1302 0.917264V0.976968C70.7049 3.73826 70.1004 5.70102 69.675 6.86525C69.0182 8.6265 67.0256 13.9849 61.906 17.8955C61.5179 18.194 61.2717 18.3582 61.0627 18.5C62.0478 19.2314 62.9508 20.0075 63.7568 20.7911C66.9584 23.9405 68.6227 27.2839 69.3317 28.9929C70.175 31.0378 70.6228 32.9707 70.7869 33.6946C70.9437 34.3812 71.0258 35.0081 71.0855 35.5081C71.1153 35.7245 71.1377 35.9186 71.1676 36.0977L71.2123 36.3887V36.4037ZM70.0033 35.2693C70.1526 35.4335 70.3466 35.5305 70.5407 35.635C70.6825 35.7096 70.8243 35.7842 70.9586 35.8887C70.9437 35.7768 70.9287 35.6648 70.9138 35.5379C70.8541 35.0379 70.772 34.4185 70.6153 33.7394C70.4511 33.0155 70.0033 31.09 69.1675 29.0676C68.466 27.366 66.8092 24.0525 63.63 20.9255C62.8016 20.112 61.8687 19.3209 60.8537 18.5746L60.7493 18.5L60.9209 18.3881C61.1373 18.2388 61.3911 18.0746 61.7941 17.7686C66.8764 13.8804 68.854 8.55934 69.5108 6.81301C69.9287 5.6861 70.5183 3.78304 70.9287 1.1113C70.6451 1.24563 70.0406 1.53669 69.8839 1.61132C68.8466 6.11895 67.548 9.05189 67.3391 9.43997L67.1525 9.79073C65.7868 12.3057 64.2345 15.1641 59.1596 18.5224L59.3238 18.6493C60.3463 19.4403 61.7493 20.515 63.0926 21.9404L63.1673 22.0225C64.6001 23.5375 66.3838 25.4256 67.8465 28.4407C68.5779 29.9557 69.6003 32.3065 70.0108 35.2767L70.0033 35.2693Z" fill="#231F20"/>
<path d="M74.615 11.3054C72.0776 7.14853 71.3388 3.20809 71.0851 0.969202C71.0851 0.954276 71.0627 0.954276 71.0627 0.969202C70.7343 3.29018 69.8835 7.12615 67.4207 11.186C65.2416 14.7757 62.6743 17.1265 60.9205 18.4922V18.5072C62.6519 19.7684 65.3237 22.0595 67.5402 25.694C70.0776 29.8509 70.8164 33.7913 71.0701 36.0302C71.0701 36.0451 71.0925 36.0451 71.0925 36.0302C71.4209 33.7092 72.2717 29.8733 74.7344 25.8134C76.9136 22.2237 79.4809 19.8729 81.2347 18.5072V18.4922C79.5033 17.231 76.8315 14.9399 74.615 11.3054Z" fill="white"/>
<path d="M71.078 36.1575H70.9736L70.9512 36.0456C70.5482 32.4111 69.3317 28.8587 67.4361 25.7541C65.7271 22.9555 63.5106 20.545 60.8463 18.6046L60.8015 18.5673V18.4404L60.8463 18.3957C63.4434 16.3732 65.6226 13.9253 67.3242 11.1193C69.2198 7.99975 70.4362 4.57425 70.9512 0.947255L70.9661 0.842773H71.078H71.1825L71.2049 0.954718C71.6079 4.58918 72.8244 8.14155 74.72 11.2461C76.429 14.0448 78.6455 16.4553 81.3098 18.3957L81.3545 18.433V18.5598L81.3098 18.6046C78.7127 20.6271 76.5335 23.0749 74.8319 25.881C72.9363 29.0005 71.7199 32.426 71.2049 36.053L71.19 36.1575H71.078ZM61.1001 18.4927C63.7345 20.4405 65.9361 22.8436 67.6376 25.6273C69.4213 28.5453 70.6079 31.8588 71.0855 35.262C71.6602 31.8812 72.8542 28.6796 74.6304 25.7467C76.3245 22.9555 78.4813 20.5226 81.0486 18.5001C78.4141 16.5523 76.2126 14.1492 74.511 11.3656C72.7274 8.44753 71.5407 5.13398 71.0631 1.73087C70.4885 5.11159 69.2944 8.3132 67.5182 11.2461C65.8241 14.0373 63.6673 16.4702 61.1001 18.4927Z" fill="#231F20"/>
<path d="M220.293 103.063C226.892 103.063 232.241 97.714 232.241 91.1152C232.241 84.5164 226.892 79.167 220.293 79.167C213.694 79.167 208.345 84.5164 208.345 91.1152C208.345 97.714 213.694 103.063 220.293 103.063Z" stroke="#231F20" stroke-width="0.746296" stroke-miterlimit="10"/>
<path d="M220.457 85.2271C222.666 85.2271 224.457 84.1445 224.457 82.8091C224.457 81.4737 222.666 80.3911 220.457 80.3911C218.248 80.3911 216.457 81.4737 216.457 82.8091C216.457 84.1445 218.248 85.2271 220.457 85.2271Z" fill="black"/>
<path d="M220.486 79.1743C216.27 79.1743 212.844 81.2789 212.844 83.8685C212.844 86.4582 216.262 88.5627 220.486 88.5627C224.71 88.5627 228.129 86.4582 228.129 83.8685C228.129 81.2789 224.71 79.1743 220.486 79.1743ZM220.457 85.2342C218.248 85.2342 216.456 84.1521 216.456 82.8162C216.456 81.4804 218.248 80.3982 220.457 80.3982C222.666 80.3982 224.457 81.4804 224.457 82.8162C224.457 84.1521 222.666 85.2342 220.457 85.2342Z" fill="#3978D6" stroke="#231F20" stroke-width="0.746296" stroke-miterlimit="10"/>
<path d="M214.792 86.9958C214.359 87.5928 213.964 88.7123 213.606 90.0929C213.27 91.3616 213.068 92.1303 212.844 93.093C214.382 94.0185 216.039 94.4215 216.971 94.6453C220.934 95.6081 224.255 94.5035 225.569 94.0558C226.651 93.6826 227.509 93.2572 228.091 92.9438C227.934 92.0632 227.726 91.093 227.427 90.0556C227.084 88.8765 226.696 87.8242 226.3 86.9062C225.434 87.4436 224.121 88.1078 222.412 88.4063C218.718 89.0556 215.777 87.5555 214.792 86.9958Z" fill="#F2B4E8" stroke="#231F20" stroke-width="0.746296" stroke-miterlimit="10"/>
<path d="M228.084 92.951C228.592 92.7645 229.764 92.257 230.711 91.0256C231.57 89.9211 231.808 88.7942 231.883 88.2568C232.107 89.1599 232.293 90.3763 232.211 91.8017C232.047 94.5705 230.943 96.6228 230.278 97.6602L228.047 99.0259C228.084 98.1751 228.114 97.2945 228.122 96.3989C228.137 95.2123 228.122 94.063 228.084 92.951Z" fill="#F2B4E8" stroke="#231F20" stroke-width="0.746296" stroke-miterlimit="10"/>
<path d="M213.345 99.6155C212.68 98.1304 212.643 97.1154 212.643 95.8019C212.643 94.9064 212.755 93.6526 212.845 92.9212C212.292 92.6526 211.038 91.9883 210.277 91.1152C208.979 89.6226 209.188 88.5778 209.12 87.9136C208.882 88.727 207.971 92.0928 209.747 95.5407C210.777 97.5333 212.509 99.0632 213.337 99.6155H213.345Z" fill="#F2B4E8" stroke="#231F20" stroke-width="0.746296" stroke-miterlimit="10"/>
<path d="M213.345 99.4363C214.472 100.048 216.032 100.712 217.972 101.026C222.726 101.81 226.525 99.996 227.973 99.2124L227.346 100.757C226.413 101.444 224.928 102.324 222.935 102.772C218.547 103.75 214.98 101.847 213.972 101.265C213.763 100.66 213.554 100.048 213.345 99.4363Z" fill="#F2B4E8" stroke="#231F20" stroke-width="0.746296" stroke-miterlimit="10"/>
<path d="M225.106 23.6724L203.419 23.5381C203.21 23.5381 203.016 23.6202 202.874 23.7769L193.135 34.2698C192.694 34.74 193.03 35.5161 193.68 35.5161H218.703C218.957 35.5161 219.195 35.3818 219.33 35.1654L225.733 24.8068C226.039 24.3142 225.688 23.6799 225.106 23.6799V23.6724Z" fill="#F1B6E8" stroke="#231F20" stroke-width="0.559722" stroke-miterlimit="10"/>
<path d="M225.822 17.6872L203.247 17.5454C203.15 17.5454 203.06 17.5827 203 17.6499L192.508 28.9414C192.306 29.1578 192.463 29.5085 192.754 29.5085H218.919C219.038 29.5085 219.143 29.4488 219.21 29.3518L226.113 18.1947C226.255 17.9708 226.091 17.6797 225.83 17.6797L225.822 17.6872Z" fill="#FFF100" stroke="#231F20" stroke-width="0.559722" stroke-miterlimit="10"/>
<path d="M218.725 29.5234H192.687C192.584 29.5234 192.5 29.607 192.5 29.71V35.5908C192.5 35.6939 192.584 35.7774 192.687 35.7774H218.725C218.828 35.7774 218.912 35.6939 218.912 35.5908V29.71C218.912 29.607 218.828 29.5234 218.725 29.5234Z" fill="white" stroke="#231F20" stroke-width="0.746296" stroke-miterlimit="10"/>
<path d="M219.061 29.5086L226.166 18.0977C226.196 18.053 226.263 18.0754 226.263 18.1276V24.0606C226.263 24.0606 226.263 24.0756 226.263 24.0905L219.158 35.9865C219.128 36.0312 219.061 36.0089 219.061 35.9566V29.5385C219.061 29.5385 219.061 29.5161 219.069 29.5086H219.061Z" fill="white" stroke="#231F20" stroke-width="0.559722" stroke-miterlimit="10"/>
<path d="M212.456 16.0379L205.53 15.9932C205.53 15.9932 205.47 16.0081 205.455 16.023L202.239 19.4858C202.179 19.553 202.224 19.6575 202.313 19.6575H210.336C210.336 19.6575 210.403 19.6426 210.426 19.6052L212.545 16.1872C212.59 16.12 212.545 16.0305 212.456 16.0305V16.0379Z" fill="#F1B6E8" stroke="#231F20" stroke-width="0.559722" stroke-miterlimit="10"/>
<path d="M210.15 19.6646H202.426C202.323 19.6646 202.24 19.7481 202.24 19.8511V21.396C202.24 21.499 202.323 21.5825 202.426 21.5825H210.15C210.253 21.5825 210.337 21.499 210.337 21.396V19.8511C210.337 19.7481 210.253 19.6646 210.15 19.6646Z" fill="#EB6218" stroke="#231F20" stroke-width="0.559722" stroke-miterlimit="10"/>
<path d="M210.382 19.6651L212.561 16.165C212.561 16.165 212.591 16.1575 212.591 16.1724V17.9934C212.591 17.9934 212.591 17.9934 212.591 18.0008L210.411 21.6502C210.411 21.6502 210.382 21.6577 210.382 21.6428V19.6725C210.382 19.6725 210.382 19.6725 210.382 19.6651Z" fill="#CC3521" stroke="#231F20" stroke-width="0.559722" stroke-miterlimit="10"/>
<path d="M207.546 21.9935L200.62 21.9487C200.62 21.9487 200.561 21.9637 200.546 21.9786L197.329 25.4414C197.27 25.5086 197.314 25.613 197.404 25.613H205.427C205.427 25.613 205.494 25.5981 205.516 25.5608L207.636 22.1428C207.68 22.0756 207.636 21.986 207.546 21.986V21.9935Z" fill="#F1B6E8" stroke="#231F20" stroke-width="0.559722" stroke-miterlimit="10"/>
<path d="M205.24 25.6201H197.516C197.413 25.6201 197.329 25.7036 197.329 25.8067V27.3515C197.329 27.4546 197.413 27.5381 197.516 27.5381H205.24C205.343 27.5381 205.426 27.4546 205.426 27.3515V25.8067C205.426 25.7036 205.343 25.6201 205.24 25.6201Z" fill="#EB6218" stroke="#231F20" stroke-width="0.559722" stroke-miterlimit="10"/>
<path d="M205.478 25.6128L207.657 22.1127C207.657 22.1127 207.687 22.1052 207.687 22.1202V23.9411C207.687 23.9411 207.687 23.9411 207.687 23.9486L205.508 27.598C205.508 27.598 205.478 27.6054 205.478 27.5905V25.6203C205.478 25.6203 205.478 25.6203 205.478 25.6128Z" fill="#CC3521" stroke="#231F20" stroke-width="0.559722" stroke-miterlimit="10"/>
<path d="M222.837 16.12L215.911 16.0752C215.911 16.0752 215.851 16.0901 215.836 16.105L212.62 19.5679C212.56 19.635 212.605 19.7395 212.694 19.7395H220.717C220.717 19.7395 220.784 19.7246 220.807 19.6873L222.926 16.2692C222.971 16.2021 222.926 16.1125 222.837 16.1125V16.12Z" fill="#F1B6E8" stroke="#231F20" stroke-width="0.559722" stroke-miterlimit="10"/>
<path d="M220.531 19.7471H212.807C212.704 19.7471 212.62 19.8306 212.62 19.9336V21.4785C212.62 21.5815 212.704 21.6651 212.807 21.6651H220.531C220.634 21.6651 220.718 21.5815 220.718 21.4785V19.9336C220.718 19.8306 220.634 19.7471 220.531 19.7471Z" fill="#EB6218" stroke="#231F20" stroke-width="0.559722" stroke-miterlimit="10"/>
<path d="M220.761 19.7393L222.941 16.2392C222.941 16.2392 222.971 16.2317 222.971 16.2466V18.0676C222.971 18.0676 222.971 18.0676 222.971 18.0751L220.791 21.7244C220.791 21.7244 220.761 21.7319 220.761 21.717V19.7468C220.761 19.7468 220.761 19.7468 220.761 19.7393Z" fill="#CC3521" stroke="#231F20" stroke-width="0.559722" stroke-miterlimit="10"/>
</g>
<defs>
<clipPath id="clip0_366_3963">
<rect width="344.789" height="236.001" fill="white"/>
</clipPath>
</defs>
</svg>
